<svg xmlns="http://www.w3.org/2000/svg" width="351" height="100" viewBox="0 0 350.9 100.0" fill="none"><g transform="scale(0.625)"><g><path d="M28 40Q80 0 132 40" stroke="#1B57F5" stroke-width="8.5" stroke-linecap="round"/><path d="M42 56Q80 28 118 56" stroke="#1B57F5" stroke-width="8.5" stroke-linecap="round"/><path d="M59 96V81A21 21 0 0 1 101 81V96" stroke="#1B57F5" stroke-width="8.5"/><path d="M56 96H104A12 12 0 0 1 116 108V132A12 12 0 0 1 104 144H56A12 12 0 0 1 44 132V108A12 12 0 0 1 56 96Z M84.6 119.6L86.5 130.5Q87 133 84.5 133L75.5 133Q73 133 73.5 130.5L75.4 119.6A6.5 6.5 0 1 1 84.6 119.6Z" fill="#1B57F5" fill-rule="evenodd"/></g></g><path d="M133.3984375 62.0V57.298828125L151.0986328125 31.810546875Q152.5712890625 29.71484375 154.3271484375 27.5908203125Q154.9501953125 26.826171875 155.6015625 26.033203125Q154.2705078125 26.1181640625 152.939453125 26.1181640625Q150.1640625 26.1748046875 147.388671875 26.1748046875H133.28515625V19.802734375H164.4375V24.560546875L147.048828125 49.595703125Q145.4912109375 51.8046875 143.6787109375 54.013671875Q142.9423828125 54.8916015625 142.2060546875 55.76953125Q143.650390625 55.6845703125 145.06640625 55.65625Q147.8984375 55.6279296875 150.73046875 55.6279296875H164.5791015625V62.0Z M178.6015078125 19.802734375V62.0H171.039984375V19.802734375Z M186.0536015625 62.0V19.802734375H201.828015625Q206.6707890625 19.802734375 209.984265625 21.615234375Q213.2977421875 23.427734375 214.9969609375 26.58544921875Q216.6961796875 29.7431640625 216.6961796875 33.7646484375Q216.6961796875 37.814453125 214.98280078125 40.9580078125Q213.269421875 44.1015625 209.927625 45.9140625Q206.585828125 47.7265625 201.714734375 47.7265625H193.615125V62.0ZM193.615125 41.49609375H200.7235234375Q203.583875 41.49609375 205.41053515625 40.5048828125Q207.2371953125 39.513671875 208.10096484375 37.7578125Q208.964734375 36.001953125 208.964734375 33.7646484375Q208.964734375 31.52734375 208.10096484375 29.7998046875Q207.2371953125 28.072265625 205.396375 27.109375Q203.5555546875 26.146484375 200.6668828125 26.146484375H193.615125Z" fill="#0B1B3A"/><path d="M240.25346875 62.0 228.868703125 19.802734375H236.9966328125L242.4907734375 42.2607421875Q243.0571796875 44.6962890625 243.55278515625 47.38671875Q244.048390625 50.0771484375 244.5298359375 52.7958984375Q244.6714375 53.7021484375 244.8130390625 54.63671875Q244.9829609375 53.7021484375 245.1528828125 52.7958984375Q245.634328125 50.0771484375 246.1724140625 47.38671875Q246.7105 44.6962890625 247.3052265625 42.2607421875L253.0259296875 19.802734375H261.040578125L266.7329609375 42.2607421875Q267.3560078125 44.6962890625 267.87993359375 47.38671875Q268.403859375 50.0771484375 268.913625 52.7958984375Q269.0552265625 53.673828125 269.2251484375 54.5517578125Q269.36675 53.673828125 269.536671875 52.7958984375Q269.989796875 50.0771484375 270.4995625 47.38671875Q271.009328125 44.6962890625 271.575734375 42.2607421875L277.0415546875 19.802734375H285.1978046875L273.78471875 62.0H265.118703125L258.9731953125 38.6923828125Q258.1235859375 35.435546875 257.5005390625 31.6123046875Q257.24565625 30.1962890625 256.9907734375 28.6953125Q256.7642109375 30.0830078125 256.56596875 31.3857421875Q255.9995625 35.15234375 255.0649921875 38.6923828125L248.919484375 62.0Z M289.4780234375 62.0V30.337890625H296.8413046875V62.0ZM293.1596640625 25.86328125Q291.4038046875 25.86328125 290.14355078125 24.673828125Q288.883296875 23.484375 288.883296875 21.841796875Q288.883296875 20.142578125 290.14355078125 18.96728515625Q291.4038046875 17.7919921875 293.1596640625 17.7919921875Q294.94384375 17.7919921875 296.20409765625 18.96728515625Q297.4643515625 20.142578125 297.4643515625 21.8134765625Q297.4643515625 23.484375 296.20409765625 24.673828125Q294.94384375 25.86328125 293.1596640625 25.86328125Z M303.9535546875 62.0V19.802734375H330.9711328125V26.1748046875H311.515078125V38.833984375H329.073671875V45.12109375H311.515078125V62.0Z M336.66736718749996 62.0V30.337890625H344.03064843749996V62.0ZM340.34900781249996 25.86328125Q338.59314843749996 25.86328125 337.33289453124996 24.673828125Q336.07264062499996 23.484375 336.07264062499996 21.841796875Q336.07264062499996 20.142578125 337.33289453124996 18.96728515625Q338.59314843749996 17.7919921875 340.34900781249996 17.7919921875Q342.13318749999996 17.7919921875 343.39344140624996 18.96728515625Q344.65369531249996 20.142578125 344.65369531249996 21.8134765625Q344.65369531249996 23.484375 343.39344140624996 24.673828125Q342.13318749999996 25.86328125 340.34900781249996 25.86328125Z" fill="#1B57F5"/><path d="M135.279052734375 86.129150390625Q134.3076171875 86.129150390625 133.5916748046875 85.825927734375Q132.875732421875 85.522705078125 132.471435546875 84.9443359375Q132.067138671875 84.365966796875 132.033447265625 83.54052734375H133.51025390625Q133.549560546875 83.978515625 133.785400390625 84.2705078125Q134.021240234375 84.5625 134.40869140625 84.7056884765625Q134.796142578125 84.848876953125 135.267822265625 84.848876953125Q135.761962890625 84.848876953125 136.1409912109375 84.697265625Q136.52001953125 84.545654296875 136.7333984375 84.2733154296875Q136.94677734375 84.0009765625 136.94677734375 83.6416015625Q136.94677734375 83.31591796875 136.7586669921875 83.1025390625Q136.570556640625 82.88916015625 136.2308349609375 82.7403564453125Q135.89111328125 82.591552734375 135.436279296875 82.479248046875L134.4873046875 82.232177734375Q133.437255859375 81.962646484375 132.8504638671875 81.41796875Q132.263671875 80.873291015625 132.263671875 79.986083984375Q132.263671875 79.244873046875 132.662353515625 78.68896484375Q133.06103515625 78.133056640625 133.751708984375 77.8270263671875Q134.4423828125 77.52099609375 135.318359375 77.52099609375Q136.211181640625 77.52099609375 136.885009765625 77.829833984375Q137.558837890625 78.138671875 137.9378662109375 78.683349609375Q138.31689453125 79.22802734375 138.333740234375 79.92431640625H136.87939453125Q136.8232421875 79.38525390625 136.3992919921875 79.0904541015625Q135.975341796875 78.795654296875 135.2958984375 78.795654296875Q134.82421875 78.795654296875 134.4844970703125 78.9388427734375Q134.144775390625 79.08203125 133.9622802734375 79.3291015625Q133.77978515625 79.576171875 133.77978515625 79.896240234375Q133.77978515625 80.244384765625 133.9959716796875 80.468994140625Q134.212158203125 80.693603515625 134.5406494140625 80.828369140625Q134.869140625 80.963134765625 135.2060546875 81.04736328125L135.986572265625 81.24951171875Q136.45263671875 81.36181640625 136.890625 81.547119140625Q137.32861328125 81.732421875 137.6795654296875 82.0159912109375Q138.030517578125 82.299560546875 138.23828125 82.703857421875Q138.446044921875 83.108154296875 138.446044921875 83.65283203125Q138.446044921875 84.388427734375 138.06982421875 84.9471435546875Q137.693603515625 85.505859375 136.986083984375 85.8175048828125Q136.278564453125 86.129150390625 135.279052734375 86.129150390625Z M141.66177734375 86.0V77.63330078125H147.09732421875V78.896728515625H143.161044921875V81.154052734375H146.80533203125V82.400634765625H143.161044921875V84.736572265625H147.11978515625V86.0Z M154.030341796875 86.1123046875Q152.929755859375 86.1123046875 152.065009765625 85.601318359375Q151.200263671875 85.09033203125 150.7005078125 84.130126953125Q150.200751953125 83.169921875 150.200751953125 81.822265625Q150.200751953125 80.468994140625 150.7033154296875 79.5059814453125Q151.20587890625 78.54296875 152.0734326171875 78.031982421875Q152.940986328125 77.52099609375 154.030341796875 77.52099609375Q154.715400390625 77.52099609375 155.3134228515625 77.7147216796875Q155.9114453125 77.908447265625 156.3803173828125 78.2818603515625Q156.849189453125 78.6552734375 157.152412109375 79.1943359375Q157.455634765625 79.7333984375 157.556708984375 80.41845703125H156.0462109375Q155.973212890625 80.042236328125 155.7963330078125 79.755859375Q155.619453125 79.469482421875 155.355537109375 79.2701416015625Q155.09162109375 79.07080078125 154.760322265625 78.9669189453125Q154.4290234375 78.863037109375 154.052802734375 78.863037109375Q153.367744140625 78.863037109375 152.8371044921875 79.2083740234375Q152.30646484375 79.5537109375 152.0060498046875 80.2135009765625Q151.705634765625 80.873291015625 151.705634765625 81.822265625Q151.705634765625 82.782470703125 152.008857421875 83.439453125Q152.312080078125 84.096435546875 152.8427197265625 84.433349609375Q153.373359375 84.770263671875 154.0471875 84.770263671875Q154.423408203125 84.770263671875 154.75470703125 84.6663818359375Q155.086005859375 84.5625 155.3527294921875 84.3631591796875Q155.619453125 84.163818359375 155.799140625 83.8746337890625Q155.978828125 83.58544921875 156.0462109375 83.21484375H157.56232421875Q157.478095703125 83.815673828125 157.1945263671875 84.3406982421875Q156.91095703125 84.86572265625 156.4505078125 85.264404296875Q155.99005859375 85.6630859375 155.3808056640625 85.8876953125Q154.771552734375 86.1123046875 154.030341796875 86.1123046875Z M164.169658203125 86.12353515625Q163.147685546875 86.12353515625 162.384013671875 85.7388916015625Q161.620341796875 85.354248046875 161.19919921875 84.6719970703125Q160.778056640625 83.98974609375 160.778056640625 83.096923828125V77.63330078125H162.27732421875V82.973388671875Q162.27732421875 83.49560546875 162.5103564453125 83.905517578125Q162.743388671875 84.3154296875 163.1673388671875 84.5484619140625Q163.5912890625 84.781494140625 164.169658203125 84.781494140625Q164.74802734375 84.781494140625 165.1719775390625 84.5484619140625Q165.595927734375 84.3154296875 165.8289599609375 83.905517578125Q166.0619921875 83.49560546875 166.0619921875 82.973388671875V77.63330078125H167.561259765625V83.096923828125Q167.561259765625 83.98974609375 167.1373095703125 84.6719970703125Q166.713359375 85.354248046875 165.9524951171875 85.7388916015625Q165.191630859375 86.12353515625 164.169658203125 86.12353515625Z M171.08021484375 86.0V77.63330078125H174.207900390625Q175.16810546875 77.63330078125 175.825087890625 77.97021484375Q176.4820703125 78.30712890625 176.818984375 78.9107666015625Q177.1558984375 79.514404296875 177.1558984375 80.311767578125Q177.1558984375 81.109130859375 176.8161767578125 81.69873046875Q176.476455078125 82.288330078125 175.813857421875 82.6083984375Q175.735244140625 82.647705078125 175.651015625 82.681396484375L177.464736328125 86.0H175.78578125L174.140517578125 82.928466796875H172.579482421875V86.0ZM172.579482421875 81.6875H173.98890625Q174.556044921875 81.6875 174.915419921875 81.5274658203125Q175.274794921875 81.367431640625 175.4488671875 81.05859375Q175.622939453125 80.749755859375 175.622939453125 80.311767578125Q175.622939453125 79.862548828125 175.4488671875 79.5452880859375Q175.274794921875 79.22802734375 174.9126123046875 79.0595703125Q174.5504296875 78.89111328125 173.97767578125 78.89111328125H172.579482421875Z M180.42216796875 86.0V77.63330078125H185.85771484375V78.896728515625H181.921435546875V81.154052734375H185.56572265625V82.400634765625H181.921435546875V84.736572265625H185.88017578125V86.0Z M197.573115234375 86.1123046875Q196.416376953125 86.1123046875 195.546015625 85.590087890625Q194.675654296875 85.06787109375 194.18712890625 84.107666015625Q193.698603515625 83.1474609375 193.698603515625 81.827880859375Q193.698603515625 80.474609375 194.2011669921875 79.5115966796875Q194.70373046875 78.548583984375 195.5684765625 78.0347900390625Q196.43322265625 77.52099609375 197.528193359375 77.52099609375Q198.2188671875 77.52099609375 198.8168896484375 77.72314453125Q199.414912109375 77.92529296875 199.8837841796875 78.2987060546875Q200.35265625 78.672119140625 200.6530712890625 79.18310546875Q200.953486328125 79.694091796875 201.0489453125 80.30615234375H199.515986328125Q199.414912109375 79.96923828125 199.2380322265625 79.705322265625Q199.06115234375 79.44140625 198.8112744140625 79.25048828125Q198.561396484375 79.0595703125 198.2441357421875 78.9613037109375Q197.926875 78.863037109375 197.5450390625 78.863037109375Q196.8712109375 78.863037109375 196.3405712890625 79.20556640625Q195.809931640625 79.548095703125 195.506708984375 80.205078125Q195.203486328125 80.862060546875 195.203486328125 81.816650390625Q195.203486328125 82.760009765625 195.506708984375 83.4197998046875Q195.809931640625 84.07958984375 196.34337890625 84.4249267578125Q196.876826171875 84.770263671875 197.57873046875 84.770263671875Q198.2188671875 84.770263671875 198.6877392578125 84.523193359375Q199.156611328125 84.276123046875 199.414912109375 83.8212890625Q199.6563671875 83.388916015625 199.66759765625 82.804931640625H197.73595703125V81.625732421875H201.121943359375V82.630859375Q201.121943359375 83.703369140625 200.6643017578125 84.4866943359375Q200.20666015625 85.27001953125 199.4064892578125 85.691162109375Q198.606318359375 86.1123046875 197.573115234375 86.1123046875Z M207.807890625 86.12353515625Q206.78591796875 86.12353515625 206.02224609375 85.7388916015625Q205.25857421875 85.354248046875 204.837431640625 84.6719970703125Q204.4162890625 83.98974609375 204.4162890625 83.096923828125V77.63330078125H205.915556640625V82.973388671875Q205.915556640625 83.49560546875 206.1485888671875 83.905517578125Q206.38162109375 84.3154296875 206.8055712890625 84.5484619140625Q207.229521484375 84.781494140625 207.807890625 84.781494140625Q208.386259765625 84.781494140625 208.8102099609375 84.5484619140625Q209.23416015625 84.3154296875 209.4671923828125 83.905517578125Q209.700224609375 83.49560546875 209.700224609375 82.973388671875V77.63330078125H211.1994921875V83.096923828125Q211.1994921875 83.98974609375 210.7755419921875 84.6719970703125Q210.351591796875 85.354248046875 209.5907275390625 85.7388916015625Q208.82986328125 86.12353515625 207.807890625 86.12353515625Z M214.718447265625 86.0V77.63330078125H220.153994140625V78.896728515625H216.21771484375V81.154052734375H219.862001953125V82.400634765625H216.21771484375V84.736572265625H220.176455078125V86.0Z M226.45810546875 86.129150390625Q225.486669921875 86.129150390625 224.7707275390625 85.825927734375Q224.05478515625 85.522705078125 223.65048828125 84.9443359375Q223.24619140625 84.365966796875 223.2125 83.54052734375H224.689306640625Q224.72861328125 83.978515625 224.964453125 84.2705078125Q225.20029296875 84.5625 225.587744140625 84.7056884765625Q225.9751953125 84.848876953125 226.446875 84.848876953125Q226.941015625 84.848876953125 227.3200439453125 84.697265625Q227.699072265625 84.545654296875 227.912451171875 84.2733154296875Q228.125830078125 84.0009765625 228.125830078125 83.6416015625Q228.125830078125 83.31591796875 227.9377197265625 83.1025390625Q227.749609375 82.88916015625 227.4098876953125 82.7403564453125Q227.070166015625 82.591552734375 226.61533203125 82.479248046875L225.666357421875 82.232177734375Q224.61630859375 81.962646484375 224.0295166015625 81.41796875Q223.442724609375 80.873291015625 223.442724609375 79.986083984375Q223.442724609375 79.244873046875 223.84140625 78.68896484375Q224.240087890625 78.133056640625 224.93076171875 77.8270263671875Q225.621435546875 77.52099609375 226.497412109375 77.52099609375Q227.390234375 77.52099609375 228.0640625 77.829833984375Q228.737890625 78.138671875 229.1169189453125 78.683349609375Q229.495947265625 79.22802734375 229.51279296875 79.92431640625H228.058447265625Q228.002294921875 79.38525390625 227.5783447265625 79.0904541015625Q227.15439453125 78.795654296875 226.474951171875 78.795654296875Q226.003271484375 78.795654296875 225.6635498046875 78.9388427734375Q225.323828125 79.08203125 225.1413330078125 79.3291015625Q224.958837890625 79.576171875 224.958837890625 79.896240234375Q224.958837890625 80.244384765625 225.1750244140625 80.468994140625Q225.3912109375 80.693603515625 225.7197021484375 80.828369140625Q226.048193359375 80.963134765625 226.385107421875 81.04736328125L227.165625 81.24951171875Q227.631689453125 81.36181640625 228.069677734375 81.547119140625Q228.507666015625 81.732421875 228.8586181640625 82.0159912109375Q229.2095703125 82.299560546875 229.417333984375 82.703857421875Q229.62509765625 83.108154296875 229.62509765625 83.65283203125Q229.62509765625 84.388427734375 229.248876953125 84.9471435546875Q228.87265625 85.505859375 228.16513671875 85.8175048828125Q227.4576171875 86.129150390625 226.45810546875 86.129150390625Z M232.464609375 78.896728515625V77.63330078125H239.12427734375V78.896728515625H236.546884765625V86.0H235.0476171875V78.896728515625Z M246.44856445312502 86.0 249.36848632812502 77.63330078125H251.27205078125002L254.25935546875002 86.0H252.61409179687502L251.90657226562502 83.927978515625H248.77327148437502L248.08821289062502 86.0ZM251.49104492187502 82.720703125 251.12605468750002 81.65380859375Q250.90706054687502 80.97998046875 250.67122070312502 80.12646484375Q250.50276367187502 79.52001953125 250.30623046875002 78.795654296875Q250.12092773437502 79.53125 249.95808593750002 80.143310546875Q249.72786132812502 81.00244140625 249.52571289062502 81.65380859375L249.17195312500002 82.720703125Z M260.7824609375 86.1123046875Q259.681875 86.1123046875 258.81712890625 85.601318359375Q257.9523828125 85.09033203125 257.452626953125 84.130126953125Q256.95287109375 83.169921875 256.95287109375 81.822265625Q256.95287109375 80.468994140625 257.4554345703125 79.5059814453125Q257.957998046875 78.54296875 258.8255517578125 78.031982421875Q259.69310546875 77.52099609375 260.7824609375 77.52099609375Q261.46751953125 77.52099609375 262.0655419921875 77.7147216796875Q262.663564453125 77.908447265625 263.1324365234375 78.2818603515625Q263.60130859375 78.6552734375 263.90453125 79.1943359375Q264.20775390625 79.7333984375 264.308828125 80.41845703125H262.798330078125Q262.72533203125 80.042236328125 262.5484521484375 79.755859375Q262.371572265625 79.469482421875 262.10765625 79.2701416015625Q261.843740234375 79.07080078125 261.51244140625 78.9669189453125Q261.181142578125 78.863037109375 260.804921875 78.863037109375Q260.11986328125 78.863037109375 259.5892236328125 79.2083740234375Q259.058583984375 79.5537109375 258.7581689453125 80.2135009765625Q258.45775390625 80.873291015625 258.45775390625 81.822265625Q258.45775390625 82.782470703125 258.7609765625 83.439453125Q259.06419921875 84.096435546875 259.5948388671875 84.433349609375Q260.125478515625 84.770263671875 260.799306640625 84.770263671875Q261.17552734375 84.770263671875 261.506826171875 84.6663818359375Q261.838125 84.5625 262.1048486328125 84.3631591796875Q262.371572265625 84.163818359375 262.551259765625 83.8746337890625Q262.730947265625 83.58544921875 262.798330078125 83.21484375H264.314443359375Q264.23021484375 83.815673828125 263.9466455078125 84.3406982421875Q263.663076171875 84.86572265625 263.202626953125 85.264404296875Q262.742177734375 85.6630859375 262.1329248046875 85.8876953125Q261.523671875 86.1123046875 260.7824609375 86.1123046875Z M271.095849609375 86.1123046875Q269.995263671875 86.1123046875 269.130517578125 85.601318359375Q268.265771484375 85.09033203125 267.766015625 84.130126953125Q267.266259765625 83.169921875 267.266259765625 81.822265625Q267.266259765625 80.468994140625 267.7688232421875 79.5059814453125Q268.27138671875 78.54296875 269.1389404296875 78.031982421875Q270.006494140625 77.52099609375 271.095849609375 77.52099609375Q271.780908203125 77.52099609375 272.3789306640625 77.7147216796875Q272.976953125 77.908447265625 273.4458251953125 78.2818603515625Q273.914697265625 78.6552734375 274.217919921875 79.1943359375Q274.521142578125 79.7333984375 274.622216796875 80.41845703125H273.11171875Q273.038720703125 80.042236328125 272.8618408203125 79.755859375Q272.6849609375 79.469482421875 272.421044921875 79.2701416015625Q272.15712890625 79.07080078125 271.825830078125 78.9669189453125Q271.49453125 78.863037109375 271.118310546875 78.863037109375Q270.433251953125 78.863037109375 269.9026123046875 79.2083740234375Q269.37197265625 79.5537109375 269.0715576171875 80.2135009765625Q268.771142578125 80.873291015625 268.771142578125 81.822265625Q268.771142578125 82.782470703125 269.074365234375 83.439453125Q269.377587890625 84.096435546875 269.9082275390625 84.433349609375Q270.4388671875 84.770263671875 271.1126953125 84.770263671875Q271.488916015625 84.770263671875 271.82021484375 84.6663818359375Q272.151513671875 84.5625 272.4182373046875 84.3631591796875Q272.6849609375 84.163818359375 272.8646484375 83.8746337890625Q273.0443359375 83.58544921875 273.11171875 83.21484375H274.62783203125Q274.543603515625 83.815673828125 274.2600341796875 84.3406982421875Q273.97646484375 84.86572265625 273.516015625 85.264404296875Q273.05556640625 85.6630859375 272.4463134765625 85.8876953125Q271.837060546875 86.1123046875 271.095849609375 86.1123046875Z M277.843564453125 86.0V77.63330078125H283.279111328125V78.896728515625H279.34283203125V81.154052734375H282.987119140625V82.400634765625H279.34283203125V84.736572265625H283.301572265625V86.0Z M289.58322265625 86.129150390625Q288.611787109375 86.129150390625 287.8958447265625 85.825927734375Q287.17990234375 85.522705078125 286.77560546875 84.9443359375Q286.37130859375 84.365966796875 286.3376171875 83.54052734375H287.814423828125Q287.85373046875 83.978515625 288.0895703125 84.2705078125Q288.32541015625 84.5625 288.712861328125 84.7056884765625Q289.1003125 84.848876953125 289.5719921875 84.848876953125Q290.0661328125 84.848876953125 290.4451611328125 84.697265625Q290.824189453125 84.545654296875 291.037568359375 84.2733154296875Q291.250947265625 84.0009765625 291.250947265625 83.6416015625Q291.250947265625 83.31591796875 291.0628369140625 83.1025390625Q290.8747265625 82.88916015625 290.5350048828125 82.7403564453125Q290.195283203125 82.591552734375 289.74044921875 82.479248046875L288.791474609375 82.232177734375Q287.74142578125 81.962646484375 287.1546337890625 81.41796875Q286.567841796875 80.873291015625 286.567841796875 79.986083984375Q286.567841796875 79.244873046875 286.9665234375 78.68896484375Q287.365205078125 78.133056640625 288.05587890625 77.8270263671875Q288.746552734375 77.52099609375 289.622529296875 77.52099609375Q290.5153515625 77.52099609375 291.1891796875 77.829833984375Q291.8630078125 78.138671875 292.2420361328125 78.683349609375Q292.621064453125 79.22802734375 292.63791015625 79.92431640625H291.183564453125Q291.127412109375 79.38525390625 290.7034619140625 79.0904541015625Q290.27951171875 78.795654296875 289.600068359375 78.795654296875Q289.128388671875 78.795654296875 288.7886669921875 78.9388427734375Q288.4489453125 79.08203125 288.2664501953125 79.3291015625Q288.083955078125 79.576171875 288.083955078125 79.896240234375Q288.083955078125 80.244384765625 288.3001416015625 80.468994140625Q288.516328125 80.693603515625 288.8448193359375 80.828369140625Q289.173310546875 80.963134765625 289.510224609375 81.04736328125L290.2907421875 81.24951171875Q290.756806640625 81.36181640625 291.194794921875 81.547119140625Q291.632783203125 81.732421875 291.9837353515625 82.0159912109375Q292.3346875 82.299560546875 292.542451171875 82.703857421875Q292.75021484375 83.108154296875 292.75021484375 83.65283203125Q292.75021484375 84.388427734375 292.373994140625 84.9471435546875Q291.9977734375 85.505859375 291.29025390625 85.8175048828125Q290.582734375 86.129150390625 289.58322265625 86.129150390625Z M298.90271484375 86.129150390625Q297.931279296875 86.129150390625 297.2153369140625 85.825927734375Q296.49939453125 85.522705078125 296.09509765625 84.9443359375Q295.69080078125 84.365966796875 295.657109375 83.54052734375H297.133916015625Q297.17322265625 83.978515625 297.4090625 84.2705078125Q297.64490234375 84.5625 298.032353515625 84.7056884765625Q298.4198046875 84.848876953125 298.891484375 84.848876953125Q299.385625 84.848876953125 299.7646533203125 84.697265625Q300.143681640625 84.545654296875 300.357060546875 84.2733154296875Q300.570439453125 84.0009765625 300.570439453125 83.6416015625Q300.570439453125 83.31591796875 300.3823291015625 83.1025390625Q300.19421875 82.88916015625 299.8544970703125 82.7403564453125Q299.514775390625 82.591552734375 299.05994140625 82.479248046875L298.110966796875 82.232177734375Q297.06091796875 81.962646484375 296.4741259765625 81.41796875Q295.887333984375 80.873291015625 295.887333984375 79.986083984375Q295.887333984375 79.244873046875 296.286015625 78.68896484375Q296.684697265625 78.133056640625 297.37537109375 77.8270263671875Q298.066044921875 77.52099609375 298.942021484375 77.52099609375Q299.83484375 77.52099609375 300.508671875 77.829833984375Q301.1825 78.138671875 301.5615283203125 78.683349609375Q301.940556640625 79.22802734375 301.95740234375 79.92431640625H300.503056640625Q300.446904296875 79.38525390625 300.0229541015625 79.0904541015625Q299.59900390625 78.795654296875 298.919560546875 78.795654296875Q298.447880859375 78.795654296875 298.1081591796875 78.9388427734375Q297.7684375 79.08203125 297.5859423828125 79.3291015625Q297.403447265625 79.576171875 297.403447265625 79.896240234375Q297.403447265625 80.244384765625 297.6196337890625 80.468994140625Q297.8358203125 80.693603515625 298.1643115234375 80.828369140625Q298.492802734375 80.963134765625 298.829716796875 81.04736328125L299.610234375 81.24951171875Q300.076298828125 81.36181640625 300.514287109375 81.547119140625Q300.952275390625 81.732421875 301.3032275390625 82.0159912109375Q301.6541796875 82.299560546875 301.861943359375 82.703857421875Q302.06970703125 83.108154296875 302.06970703125 83.65283203125Q302.06970703125 84.388427734375 301.693486328125 84.9471435546875Q301.317265625 85.505859375 300.60974609375 85.8175048828125Q299.9022265625 86.129150390625 298.90271484375 86.129150390625Z" fill="#6B7690"/></svg>