<svg xmlns="http://www.w3.org/2000/svg" viewBox="0 0 24 24" fill="none"><mask id="wyfyGuestCutout" maskUnits="userSpaceOnUse" x="0" y="0" width="24" height="24"><path d="M12 1.2 L20.5 4.6 V11 C20.5 16.6 17 20.8 12 22.6 C7 20.8 3.5 16.6 3.5 11 V4.6 Z" fill="#ffffff"/><circle cx="12" cy="14.6" r="1.35" fill="#000000"/><path d="M8.6 12.1a5 5 0 0 1 6.8 0" stroke="#000000" stroke-width="1.7" stroke-linecap="round" fill="none"/><path d="M6.3 9.3a8.6 8.6 0 0 1 11.4 0" stroke="#000000" stroke-width="1.7" stroke-linecap="round" fill="none"/></mask><path d="M12 1.2 L20.5 4.6 V11 C20.5 16.6 17 20.8 12 22.6 C7 20.8 3.5 16.6 3.5 11 V4.6 Z" fill="#ffffff" mask="url(#wyfyGuestCutout)"/></svg>