<svg xmlns="http://www.w3.org/2000/svg" width="160" height="160" viewBox="0 0 160 160" fill="none"><g transform="translate(0,-11)"><path d="M42 56Q80 28 118 56" stroke="#FFFFFF" stroke-width="8.5" stroke-linecap="round"/><path d="M59 96V81A21 21 0 0 1 101 81V96" stroke="#FFFFFF" stroke-width="8.5"/><path d="M56 96H104A12 12 0 0 1 116 108V132A12 12 0 0 1 104 144H56A12 12 0 0 1 44 132V108A12 12 0 0 1 56 96Z M84.6 119.6L86.5 130.5Q87 133 84.5 133L75.5 133Q73 133 73.5 130.5L75.4 119.6A6.5 6.5 0 1 1 84.6 119.6Z" fill="#FFFFFF" fill-rule="evenodd"/></g></svg>